<svg width="215" height="57" viewBox="0 0 215 57" fill="none" xmlns="http://www.w3.org/2000/svg">
<path d="M47.8213 47.9844C53.2843 42.639 56.0158 35.9796 56.0158 28.0065C56.0199 24.3274 55.2983 20.6838 53.8922 17.284C52.4862 13.8843 50.4235 10.7952 47.822 8.19378C45.2206 5.59233 42.1315 3.52954 38.7318 2.12354C35.332 0.717534 31.6883 -0.00407729 28.0093 1.73281e-05C20.4995 1.73281e-05 13.9542 2.73151 8.3737 8.1945C5.68119 10.7361 3.54662 13.8098 2.10557 17.2205C0.664516 20.6312 -0.0515381 24.3042 0.00288518 28.0065C0.00288518 35.9796 2.79316 42.639 8.3737 47.9844C13.9542 53.3298 20.4995 56.006 28.0093 56.0129C31.6818 56.0757 35.3293 55.397 38.7334 54.0175C42.1376 52.638 45.2285 50.5861 47.8213 47.9844Z" fill="white"/>
<path d="M27.8693 48.2384C29.5153 48.2364 31.1499 47.9648 32.7082 47.4345C34.2698 46.9232 35.7314 46.1459 37.0284 45.1369C38.2798 44.1603 39.3236 42.9436 40.0988 41.5583C40.8824 40.1288 41.2826 38.5207 41.2605 36.8906C41.3385 34.9423 40.8368 33.0146 39.8187 31.3516C38.8697 29.9033 37.6597 28.6441 36.2505 27.6381C34.8025 26.607 33.2543 25.7244 31.6294 25.0034C29.9698 24.267 28.4294 23.5011 27.0084 22.7059C25.6832 21.9808 24.4793 21.0534 23.4401 19.9571C22.4597 18.8657 21.9442 17.4346 22.0035 15.9688C21.968 15.0469 22.1679 14.1313 22.5844 13.3082C22.9201 12.6638 23.3902 12.0989 23.9627 11.6515C24.5353 11.2042 25.1972 10.8848 25.9037 10.715C26.546 10.55 27.2061 10.4646 27.8693 10.4608C29.0803 10.4417 30.2834 10.6583 31.4116 11.0988C32.3707 11.4785 33.2502 12.0344 34.0048 12.7376C34.6774 13.3662 35.2232 14.118 35.6126 14.9522C35.9563 15.6944 36.1435 16.4995 36.1623 17.3172C36.1623 17.3379 36.1705 17.3576 36.1851 17.3722C36.1997 17.3868 36.2195 17.395 36.2401 17.395H37.4382L37.822 17.115L39.7461 8.35516C39.7508 8.33983 39.7503 8.32338 39.7447 8.30837C39.7391 8.29336 39.7286 8.28063 39.715 8.27218L39.0874 7.83133C39.0734 7.82259 39.0573 7.81797 39.0408 7.81797C39.0243 7.81797 39.0081 7.82259 38.9941 7.83133C38.4793 8.19528 37.8709 8.40407 37.2411 8.43295C36.5254 8.49 35.903 8.51594 35.3896 8.51594C35.1683 8.51594 34.7534 8.47963 34.1448 8.40702C33.5328 8.33441 32.843 8.24106 32.0703 8.12696C31.2975 8.01286 30.5143 7.92469 29.6638 7.85208C28.8132 7.77947 28.1079 7.74316 27.5322 7.74316C26.0685 7.74494 24.6136 7.96877 23.2171 8.40702C21.8114 8.83138 20.49 9.49646 19.3118 10.3727C18.1426 11.2507 17.1723 12.3659 16.4645 13.6453C15.7055 15.0483 15.3247 16.6248 15.3598 18.2196C15.2854 20.1874 15.7633 22.1367 16.7393 23.8469C17.6448 25.3273 18.8304 26.6169 20.2298 27.6433C21.6463 28.6907 23.165 29.5926 24.7627 30.335C26.3843 31.0922 27.897 31.8685 29.3007 32.6637C30.59 33.3698 31.765 34.2668 32.786 35.3243C33.7092 36.3046 34.4508 38.7318 34.373 40.2462C34.0618 46.2883 28.4761 47.5331 27.8641 48.2125" fill="#191919"/>
<g clip-path="url(#clip0_9617_4319)">
<path d="M22.5033 38.1788C22.5409 38.2054 22.5858 38.2197 22.6319 38.2197C22.6777 38.2199 22.7224 38.2058 22.7599 38.1795C22.7937 38.1555 22.8201 38.1226 22.8364 38.0846L22.9394 37.7705C22.9645 37.6948 23.007 37.626 23.0634 37.5696C23.1199 37.5131 23.1887 37.4707 23.2644 37.4455L23.5669 37.3469C23.6104 37.3316 23.648 37.3032 23.6746 37.2656C23.7012 37.228 23.7154 37.1831 23.7154 37.1371C23.7154 37.091 23.7012 37.0461 23.6746 37.0085C23.648 36.9709 23.6104 36.9425 23.5669 36.9272L23.2586 36.8278C23.1831 36.8025 23.1144 36.7601 23.0579 36.7038C23.0017 36.6476 22.9593 36.5792 22.934 36.5038L22.8358 36.2014C22.8205 36.158 22.7921 36.1204 22.7544 36.0938C22.7167 36.0677 22.6718 36.0537 22.6259 36.0537C22.58 36.0537 22.5351 36.0677 22.4974 36.0938C22.4591 36.1209 22.4303 36.1594 22.4151 36.2038L22.3157 36.5094C22.2907 36.5821 22.2497 36.6484 22.1958 36.7032C22.1407 36.7591 22.0735 36.8017 21.9994 36.8276L21.6971 36.9257C21.6647 36.9372 21.6353 36.956 21.6114 36.9807C21.5874 37.0054 21.5695 37.0353 21.5591 37.0681C21.5486 37.1009 21.5459 37.1356 21.5512 37.1696C21.5564 37.2036 21.5695 37.236 21.5894 37.2641C21.6165 37.3024 21.6551 37.3312 21.6995 37.3463L21.9985 37.4434C22.0743 37.4688 22.1431 37.5114 22.1995 37.5679C22.2146 37.5831 22.2288 37.5992 22.2419 37.6161C22.2777 37.6621 22.3054 37.7139 22.3237 37.7692L22.4219 38.0711C22.4373 38.1146 22.4657 38.1522 22.5033 38.1788ZM23.7881 38.9399C23.8155 38.9593 23.8483 38.9697 23.8818 38.9697L23.8822 38.97C23.9162 38.97 23.9493 38.9593 23.9769 38.9394C24.0045 38.9196 24.0251 38.8915 24.0359 38.8593L24.0833 38.7135C24.0931 38.6843 24.1095 38.6578 24.1311 38.636C24.1528 38.6144 24.1792 38.598 24.2082 38.5883L24.3574 38.5398C24.381 38.5315 24.4024 38.5178 24.4199 38.4997C24.4373 38.4817 24.4503 38.4599 24.4579 38.4361C24.4655 38.4122 24.4675 38.3868 24.4636 38.3621C24.4598 38.3373 24.4502 38.3138 24.4357 38.2933C24.4151 38.2645 24.3857 38.2431 24.352 38.2325L24.2056 38.1851C24.1765 38.1753 24.15 38.159 24.1283 38.1373C24.1066 38.1156 24.0903 38.0892 24.0806 38.0601L24.0321 37.911C24.021 37.8794 24.0003 37.852 23.9729 37.8327C23.9523 37.8181 23.9285 37.8085 23.9035 37.8047C23.8785 37.8009 23.8529 37.803 23.8289 37.8109C23.8048 37.8187 23.783 37.8321 23.765 37.8499C23.7471 37.8677 23.7335 37.8895 23.7255 37.9135L23.6778 38.0599C23.6684 38.0885 23.6525 38.1147 23.6314 38.1363C23.6104 38.1578 23.5846 38.1743 23.5562 38.1845L23.407 38.233C23.3752 38.2442 23.3476 38.2651 23.3282 38.2927C23.3088 38.3203 23.2986 38.3533 23.2988 38.387C23.2991 38.4208 23.3099 38.4536 23.3297 38.4809C23.3495 38.5082 23.3774 38.5287 23.4094 38.5394L23.5554 38.5869C23.5846 38.5966 23.6111 38.613 23.6328 38.6348C23.6545 38.6566 23.6708 38.6832 23.6804 38.7124L23.7289 38.8614C23.7401 38.893 23.7608 38.9205 23.7881 38.9399Z" fill="#FFB31C"/>
</g>
<path d="M16.6006 38.8027C15.8815 38.8027 15.2985 39.3857 15.2985 40.1048V45.0007C15.2985 45.7198 15.8815 46.3027 16.6006 46.3027H19.4504C19.4553 46.3027 19.4602 46.3027 19.4652 46.3026V44.2715C19.4652 43.5524 20.0481 42.9694 20.7672 42.9694H22.7984C22.7985 42.9645 22.7985 42.9595 22.7985 42.9546V40.1048C22.7985 39.3857 22.2155 38.8027 21.4964 38.8027H16.6006ZM22.6832 43.4902H20.7672C20.3358 43.4902 19.986 43.84 19.986 44.2715V46.1875C20.128 46.1234 20.2587 46.0337 20.3711 45.9214L22.4171 43.8753C22.5294 43.763 22.6191 43.6323 22.6832 43.4902Z" fill="#FFB31C"/>
<path d="M76.4898 39.5268C75.3551 39.5268 74.3068 39.3911 73.3448 39.1198C72.4075 38.8731 71.4701 38.4908 70.5328 37.9728L70.4958 33.6808H72.9748L73.6408 37.1218C74.5288 37.4918 75.4908 37.6768 76.5268 37.6768C77.7848 37.6768 78.7221 37.4548 79.3388 37.0108C79.9555 36.5668 80.2638 35.9501 80.2638 35.1608C80.2638 34.4701 80.0171 33.9151 79.5238 33.4958C79.0305 33.0518 78.1918 32.6325 77.0078 32.2378L75.1578 31.6088C73.7765 31.1648 72.6788 30.5111 71.8648 29.6478C71.0755 28.7845 70.6808 27.6991 70.6808 26.3918C70.6808 25.3558 70.9521 24.4185 71.4948 23.5798C72.0375 22.7165 72.8268 22.0381 73.8628 21.5448C74.9235 21.0268 76.2061 20.7678 77.7108 20.7678C78.7715 20.7678 79.7335 20.9035 80.5968 21.1748C81.4848 21.4215 82.3605 21.7915 83.2238 22.2848L83.0388 26.1698H80.5968L79.9308 23.0618C79.2401 22.7658 78.4755 22.6178 77.6368 22.6178C76.6501 22.6178 75.8855 22.8275 75.3428 23.2468C74.8001 23.6661 74.5288 24.2335 74.5288 24.9488C74.5288 25.6148 74.7508 26.1575 75.1948 26.5768C75.6635 26.9715 76.5268 27.3785 77.7848 27.7978L79.2648 28.2418C81.0655 28.8585 82.3481 29.6231 83.1128 30.5358C83.8775 31.4485 84.2598 32.5461 84.2598 33.8288C84.2598 35.4815 83.5815 36.8505 82.2248 37.9358C80.8928 38.9965 78.9811 39.5268 76.4898 39.5268ZM84.4324 39.0088V37.4918L86.9484 37.0108C86.973 36.0735 86.9854 35.0868 86.9854 34.0508C87.01 33.0148 87.0224 32.0775 87.0224 31.2388V15.3658L84.3214 14.9958V13.5528L91.0554 11.8878L91.6104 12.2208L91.4624 17.4378V29.6108L97.6044 23.3948L94.8294 22.8398L94.8664 21.2858H103.598V22.8398L100.231 23.3208L96.4944 26.9468L102.192 36.9738L104.597 37.4918V39.0088H98.3444L93.3864 29.9808L91.4624 31.8678C91.4624 32.7065 91.4624 33.5821 91.4624 34.4948C91.487 35.3828 91.5117 36.2338 91.5364 37.0478L94.0154 37.4918V39.0088H84.4324ZM115.337 22.7658V21.2858H122.441V22.7658L120.369 23.1728L114.042 39.6748C112.982 42.5115 111.909 44.6081 110.823 45.9648C109.738 47.3215 108.394 47.9998 106.79 47.9998C105.828 47.9998 104.99 47.7531 104.274 47.2598C103.584 46.7665 103.214 46.1498 103.164 45.4098C103.312 44.7438 103.645 44.2381 104.163 43.8928C104.706 43.5721 105.298 43.4118 105.939 43.4118C106.433 43.4118 106.914 43.5105 107.382 43.7078C107.876 43.9298 108.369 44.3491 108.862 44.9658L109.084 45.2618C109.75 44.6205 110.33 43.8805 110.823 43.0418C111.317 42.2278 111.724 41.3521 112.044 40.4148L112.118 40.1928L105.088 23.0618L103.201 22.7658V21.2858H112.895V22.7658L109.972 23.1728L114.116 34.4948L118.149 23.2098L115.337 22.7658ZM136.505 16.2168V14.4778H145.829V16.2168L142.684 16.6978V39.1568H140.501L126.552 19.9908V36.7518L130.622 37.2698V39.0088H121.298V37.2698L124.443 36.8258V17.0678L123.999 16.4758L121.409 16.2168V14.4778H128.402L140.575 31.2018V16.6978L136.505 16.2168ZM154.97 39.5268C153.292 39.5268 151.775 39.1568 150.419 38.4168C149.087 37.6768 148.026 36.6038 147.237 35.1978C146.447 33.7918 146.053 32.1145 146.053 30.1658C146.053 28.1925 146.46 26.5028 147.274 25.0968C148.112 23.6908 149.21 22.6178 150.567 21.8778C151.923 21.1378 153.391 20.7678 154.97 20.7678C156.548 20.7678 158.016 21.1378 159.373 21.8778C160.729 22.6178 161.827 23.6908 162.666 25.0968C163.504 26.4781 163.924 28.1678 163.924 30.1658C163.924 32.1391 163.517 33.8288 162.703 35.2348C161.913 36.6161 160.84 37.6768 159.484 38.4168C158.152 39.1568 156.647 39.5268 154.97 39.5268ZM154.97 37.7138C156.302 37.7138 157.313 37.0971 158.004 35.8638C158.719 34.6305 159.077 32.7435 159.077 30.2028C159.077 25.1215 157.708 22.5808 154.97 22.5808C152.256 22.5808 150.9 25.1215 150.9 30.2028C150.9 32.7435 151.245 34.6305 151.936 35.8638C152.626 37.0971 153.638 37.7138 154.97 37.7138ZM171.39 39.5268C169.91 39.5268 168.75 39.1568 167.912 38.4168C167.073 37.6768 166.654 36.4928 166.654 34.8648C166.654 34.2975 166.654 33.7671 166.654 33.2738C166.678 32.7558 166.691 32.1391 166.691 31.4238V23.5428H163.953V21.6188L166.95 21.2488L168.356 16.1798H171.353L171.205 21.2858H175.645V23.5428H171.168V34.4578C171.168 35.3705 171.34 36.0365 171.686 36.4558C172.056 36.8751 172.537 37.0848 173.129 37.0848C173.795 37.0848 174.547 36.7765 175.386 36.1598L176.274 37.0848C175.805 37.8495 175.164 38.4538 174.35 38.8978C173.536 39.3171 172.549 39.5268 171.39 39.5268ZM184.814 22.5438C184.222 22.5438 183.63 22.7411 183.038 23.1358C182.471 23.5058 181.977 24.1225 181.558 24.9858C181.163 25.8491 180.917 27.0208 180.818 28.5008H185.887C186.775 28.5008 187.367 28.3158 187.663 27.9458C187.959 27.5758 188.107 27.0578 188.107 26.3918C188.107 25.2571 187.786 24.3321 187.145 23.6168C186.504 22.9015 185.727 22.5438 184.814 22.5438ZM184.814 39.5268C183.087 39.5268 181.57 39.1568 180.263 38.4168C178.956 37.6768 177.932 36.6161 177.192 35.2348C176.452 33.8288 176.082 32.1638 176.082 30.2398C176.082 28.2665 176.501 26.5768 177.34 25.1708C178.203 23.7401 179.313 22.6548 180.67 21.9148C182.051 21.1501 183.519 20.7678 185.073 20.7678C186.528 20.7678 187.799 21.0761 188.884 21.6928C189.969 22.3095 190.808 23.1728 191.4 24.2828C192.017 25.3928 192.325 26.7001 192.325 28.2048C192.325 28.9941 192.251 29.6725 192.103 30.2398H180.781C180.88 32.3611 181.435 33.9521 182.446 35.0128C183.482 36.0735 184.777 36.6038 186.331 36.6038C187.416 36.6038 188.329 36.3941 189.069 35.9748C189.834 35.5308 190.524 34.9635 191.141 34.2728L192.214 35.2348C191.499 36.5915 190.512 37.6521 189.254 38.4168C188.021 39.1568 186.541 39.5268 184.814 39.5268Z" fill="white"/>
<path d="M193.296 11.2748L193.38 8.72679H201.318L201.388 11.2748H200.422L200.128 9.46879H198.28C198.27 10.0568 198.261 10.6541 198.252 11.2608C198.252 11.8581 198.252 12.4601 198.252 13.0668V13.6688C198.252 14.2568 198.252 14.8495 198.252 15.4468C198.261 16.0348 198.27 16.6228 198.28 17.2108L199.596 17.3508V18.0088H195.088V17.3508L196.404 17.2108C196.422 16.6321 196.432 16.0488 196.432 15.4608C196.432 14.8635 196.432 14.2661 196.432 13.6688V13.0668C196.432 12.4695 196.432 11.8721 196.432 11.2748C196.432 10.6681 196.422 10.0661 196.404 9.46879H194.57L194.276 11.2748H193.296ZM201.461 18.0088V17.3508L202.763 17.1688V9.53879L201.517 9.38479V8.72679H204.639L207.369 15.6848L209.945 8.72679H213.067V9.38479L211.919 9.51079C211.91 10.0895 211.901 10.6775 211.891 11.2748C211.891 11.8628 211.891 12.4601 211.891 13.0668V13.6688C211.891 14.2661 211.891 14.8635 211.891 15.4608C211.901 16.0488 211.91 16.6368 211.919 17.2248L213.095 17.3508V18.0088H208.965V17.3508L210.071 17.2108C210.09 16.6321 210.099 16.0581 210.099 15.4888C210.099 14.9101 210.099 14.3548 210.099 13.8228L210.113 10.4908L207.341 18.0088H206.445L203.505 10.4908L203.575 13.2348V17.1688L204.737 17.3508V18.0088H201.461Z" fill="white"/>
<defs>
<clipPath id="clip0_9617_4319">
<rect width="4" height="4" fill="white" transform="translate(21.0485 35.5527)"/>
</clipPath>
</defs>
</svg>
